<svg width="175" height="55" viewBox="0 0 175 55" fill="none" xmlns="http://www.w3.org/2000/svg">
<g clip-path="url(#clip0_811_73)">
<path d="M91.8816 13.7347C91.8816 15.6893 90.3021 17.2638 88.3414 17.2638C86.3807 17.2638 84.8012 15.6893 84.8012 13.7347C84.8012 11.7802 86.3262 10.2056 88.3414 10.2056C90.3566 10.2599 91.8816 11.8344 91.8816 13.7347ZM77.2851 20.8472C77.2851 21.173 77.2851 21.7159 77.2851 21.7159C77.2851 21.7159 75.5967 19.5442 72.002 19.5442C66.0653 19.5442 61.4358 24.0506 61.4358 30.2944C61.4358 36.4839 66.0109 41.0446 72.002 41.0446C75.6511 41.0446 77.2851 38.8185 77.2851 38.8185V39.7415C77.2851 40.1759 77.6119 40.5016 78.0476 40.5016H82.4592V20.0871C82.4592 20.0871 78.4288 20.0871 78.0476 20.0871C77.6119 20.0871 77.2851 20.4672 77.2851 20.8472ZM77.2851 33.9321C76.4681 35.1265 74.8342 36.1581 72.8734 36.1581C69.3877 36.1581 66.7189 33.9864 66.7189 30.2944C66.7189 26.6024 69.3877 24.4306 72.8734 24.4306C74.7797 24.4306 76.5226 25.5165 77.2851 26.6567V33.9321ZM85.7271 20.0871H90.9557V40.5016H85.7271V20.0871ZM163.829 19.5442C160.235 19.5442 158.546 21.7159 158.546 21.7159V10.2599H153.318V40.5016C153.318 40.5016 157.348 40.5016 157.729 40.5016C158.165 40.5016 158.492 40.1216 158.492 39.7415V38.8185C158.492 38.8185 160.18 41.0446 163.775 41.0446C169.712 41.0446 174.341 36.4839 174.341 30.2944C174.341 24.1049 169.712 19.5442 163.829 19.5442ZM162.958 36.1038C160.943 36.1038 159.363 35.0722 158.546 33.8778V26.6024C159.363 25.5165 161.106 24.3763 162.958 24.3763C166.444 24.3763 169.113 26.5481 169.113 30.2401C169.113 33.9321 166.444 36.1038 162.958 36.1038ZM150.595 28.3941V40.5559H145.366V28.9913C145.366 25.6251 144.277 24.2677 141.336 24.2677C139.756 24.2677 138.122 25.0822 137.087 26.2766V40.5016H131.859V20.0871H135.998C136.434 20.0871 136.761 20.4672 136.761 20.8472V21.7159C138.286 20.1414 140.301 19.5442 142.316 19.5442C144.603 19.5442 146.51 20.1957 148.035 21.4988C149.887 23.019 150.595 24.9736 150.595 28.3941ZM119.168 19.5442C115.574 19.5442 113.885 21.7159 113.885 21.7159V10.2599H108.657V40.5016C108.657 40.5016 112.687 40.5016 113.068 40.5016C113.504 40.5016 113.831 40.1216 113.831 39.7415V38.8185C113.831 38.8185 115.519 41.0446 119.114 41.0446C125.051 41.0446 129.68 36.4839 129.68 30.2944C129.735 24.1049 125.105 19.5442 119.168 19.5442ZM118.297 36.1038C116.282 36.1038 114.702 35.0722 113.885 33.8778V26.6024C114.702 25.5165 116.445 24.3763 118.297 24.3763C121.783 24.3763 124.452 26.5481 124.452 30.2401C124.452 33.9321 121.783 36.1038 118.297 36.1038ZM104.136 19.5442C105.716 19.5442 106.533 19.8156 106.533 19.8156V24.6478C106.533 24.6478 102.175 23.1819 99.4522 26.2766V40.5559H94.2236V20.0871C94.2236 20.0871 98.254 20.0871 98.6352 20.0871C99.071 20.0871 99.3978 20.4672 99.3978 20.8472V21.7159C100.378 20.5758 102.502 19.5442 104.136 19.5442ZM49.8349 38.6556C49.5625 38.0041 49.2902 37.2983 49.0179 36.701C48.5822 35.7238 48.1465 34.8008 47.7652 33.9321L47.7107 33.8778C43.9527 25.7337 39.9223 17.481 35.674 9.33693L35.5106 9.01116C35.0749 8.19675 34.6392 7.32805 34.2035 6.45935C33.6588 5.48206 33.1142 4.45048 32.2428 3.47319C30.4999 1.30143 27.9945 0.106964 25.3257 0.106964C22.6025 0.106964 20.1516 1.30143 18.3543 3.3646C17.5373 4.34189 16.9382 5.37347 16.3935 6.35076C15.9578 7.21946 15.5221 8.08817 15.0864 8.90257L14.923 9.22834C10.7292 17.3724 6.64435 25.6251 2.88629 33.7692L2.83182 33.8778C2.45057 34.7465 2.01485 35.6695 1.57913 36.6468C1.30681 37.244 1.03449 37.8955 0.762162 38.6013C0.0541206 40.6102 -0.163738 42.5105 0.108585 44.4651C0.707697 48.5371 3.43093 51.9576 7.189 53.4779C8.60508 54.0751 10.0756 54.3466 11.6006 54.3466C12.0364 54.3466 12.581 54.2923 13.0167 54.238C14.8141 54.0208 16.6659 53.4236 18.4632 52.392C20.6962 51.1432 22.8204 49.3515 25.2168 46.7454C27.6133 49.3515 29.7919 51.1432 31.9704 52.392C33.7678 53.4236 35.6196 54.0208 37.4169 54.238C37.8526 54.2923 38.3973 54.3466 38.833 54.3466C40.358 54.3466 41.883 54.0751 43.2446 53.4779C47.0572 51.9576 49.7259 48.4828 50.325 44.4651C50.7608 42.5648 50.5429 40.6645 49.8349 38.6556ZM25.2713 41.4789C22.3302 37.7869 20.4239 34.3121 19.7703 31.3802C19.498 30.1315 19.4436 29.0456 19.607 28.0683C19.7159 27.1996 20.0427 26.4395 20.4784 25.788C21.5132 24.322 23.2561 23.399 25.2713 23.399C27.2865 23.399 29.0838 24.2677 30.0642 25.788C30.4999 26.4395 30.8267 27.1996 30.9356 28.0683C31.099 29.0456 31.0445 30.1858 30.7722 31.3802C30.1186 34.2578 28.2124 37.7326 25.2713 41.4789ZM47.0027 44.0307C46.6214 46.854 44.7152 49.2972 42.0464 50.3831C40.7393 50.926 39.3232 51.0889 37.9071 50.926C36.5455 50.7632 35.1839 50.3288 33.7678 49.5144C31.807 48.4285 29.8463 46.7454 27.5588 44.2479C31.1535 39.8501 33.3321 35.8323 34.149 32.2489C34.5303 30.5658 34.5847 29.0456 34.4214 27.634C34.2035 26.2766 33.7133 25.0279 32.9508 23.942C31.2624 21.4988 28.4302 20.0871 25.2713 20.0871C22.1123 20.0871 19.2802 21.5531 17.5918 23.942C16.8293 25.0279 16.3391 26.2766 16.1212 27.634C15.9034 29.0456 15.9578 30.6201 16.3935 32.2489C17.2105 35.8323 19.4436 39.9044 22.9838 44.3022C20.7507 46.7997 18.7355 48.4828 16.7748 49.5687C15.3587 50.3831 13.9971 50.8175 12.6355 50.9803C11.1649 51.1432 9.74884 50.926 8.49615 50.4374C5.82738 49.3515 3.92111 46.9083 3.53986 44.085C3.37647 42.7277 3.4854 41.3703 4.03004 39.8501C4.19344 39.3072 4.46576 38.7642 4.73809 38.1127C5.11934 37.244 5.55506 36.321 5.99077 35.398L6.04524 35.2894C9.8033 27.1996 13.8337 18.9469 18.0275 10.9114L18.1909 10.5857C18.6266 9.77128 19.0623 8.90257 19.498 8.08817C19.9337 7.21946 20.4239 6.40506 21.023 5.69923C22.1668 4.39618 23.6918 3.69036 25.3802 3.69036C27.0686 3.69036 28.5936 4.39618 29.7374 5.69923C30.3365 6.40506 30.8267 7.21946 31.2624 8.08817C31.6981 8.90257 32.1338 9.77128 32.5696 10.5857L32.7329 10.9114C36.8723 19.0012 40.9027 27.2539 44.6607 35.3437V35.398C45.0964 36.2667 45.4777 37.244 45.9134 38.1127C46.1857 38.7642 46.458 39.3072 46.6214 39.8501C47.0572 41.2617 47.2206 42.6191 47.0027 44.0307Z" fill="#E8E8E8"/>
</g>
<defs>
<clipPath id="clip0_811_73">
<rect width="174.342" height="54.2396" fill="white" transform="translate(0 0.106964)"/>
</clipPath>
</defs>
</svg>
